# xmcd CD database file
#
# Track frame offsets:
#	150
#	27415
#	49095
#	75755
#	106917
#	140765
#	171902
#	192060
#	211850
#	236825
#	255120
#	272435
#
# Disc length: 3812 seconds
#
# Revision: 0
# Processed by: cddbd v1.4PL0 Copyright (c) Steve Scherf et al.
# Submitted via: CDex 1.51
#
DISCID=950ee20c
DTITLE=Sylvain Luc and Francis Lassus - Piaia Naia
DYEAR=1998
DGENRE=Jazz
TTITLE0=Xe Fla Ka (En éclatant de rire)
TTITLE1=Piaïa Naïa (Le voyage désiré)
TTITLE2=Bestalde (D'ailleurs)
TTITLE3=Bürüzbürü (en présence)
TTITLE4=Nahasi (Mélanger)
TTITLE5=L'infinme indicible (Si petit...)
TTITLE6=Aizehzgoa (Vent du sud)
TTITLE7=Erti (Paisible)
TTITLE8=Tzintzarri (Beau Parleur)
TTITLE9=Kerkez (A l'improviste)
TTITLE10=Ondo (Voisinage)
TTITLE11=Zaïu (Racine)
EXTD=YEAR: 1998
EXTT0=
EXTT1=
EXTT2=
EXTT3=
EXTT4=
EXTT5=
EXTT6=
EXTT7=
EXTT8=
EXTT9=
EXTT10=
EXTT11=
PLAYORDER=
